# xmcd CD database file
#
# Track frame offsets:
#	150
#	25657
#	47260
#	70181
#	99021
#	123737
#	144151
#	165984
#	194401
#	212840
#	247802
#	275356
#
# Disc length: 3883 seconds
#
# Revision: 1
# Processed by: cddbd v1.5.2PL0 Copyright (c) Steve Scherf et al.
# Submitted via: CDex 1.51
#
DISCID=960f290c
DTITLE=Various Artist - Jazz After Dark the 90's - ג'אז רומנטי לשעות הקטנות
DYEAR=1999
DGENRE=Jazz
TTITLE0=Diana Krall - They Can't Take That Away From Me
TTITLE1=Joshua Reman - Body and Soul
TTITLE2=Lisa Ekdahl - Cry Me a River
TTITLE3=Brad Mehldau - My Romance
TTITLE4=Lenny Konitz - Lover Man
TTITLE5=Etta James - The Very Thought of You
TTITLE6=Kevin Mahogany - In the Wee Small Hours of the Morning
TTITLE7=Russell Malone - Strange Little Smile/ With You I'm Born Again
TTITLE8=Jeri Brown - Once Upon a Summertime
TTITLE9=Enrico Pieranunzi - L'heure Oblique
TTITLE10=James Carter - Round Midnight
TTITLE11=Mal Waldron - No More Tears (with Jeanne Lee)
EXTD=YEAR: 1999
EXTT0=
EXTT1=
EXTT2=
EXTT3=
EXTT4=
EXTT5=
EXTT6=
EXTT7=
EXTT8=
EXTT9=
EXTT10=
EXTT11=
PLAYORDER=
